{
  "accessors": [
    {
      "bufferView": 2,
      "componentType": 5126,
      "count": 65532,
      "max": [
        70.29412841796875,
        39.993141174316406,
        52.009124755859375
      ],
      "min": [
        -67.7884750366211,
        -37.640716552734375,
        -0.8730630278587341
      ],
      "type": "VEC3"
    },
    {
      "bufferView": 2,
      "byteOffset": 786384,
      "componentType": 5126,
      "count": 65532,
      "max": [
        0.9999999403953552,
        1.0,
        1.0
      ],
      "min": [
        -0.999998927116394,
        -0.999999463558197,
        -0.9999853372573853
      ],
      "type": "VEC3"
    },
    {
      "bufferView": 3,
      "componentType": 5126,
      "count": 65532,
      "max": [
        1.0,
        1.0,
        1.0,
        1.0
      ],
      "min": [
        -1.0,
        -1.0,
        -1.0,
        -1.0
      ],
      "type": "VEC4"
    },
    {
      "bufferView": 1,
      "componentType": 5126,
      "count": 65532,
      "max": [
        0.9999970197677612,
        0.999921977519989
      ],
      "min": [
        9.999999747378752e-06,
        9.999999974752427e-07
      ],
      "type": "VEC2"
    },
    {
      "bufferView": 0,
      "componentType": 5125,
      "count": 236559,
      "type": "SCALAR"
    },
    {
      "bufferView": 2,
      "byteOffset": 1572768,
      "componentType": 5126,
      "count": 13672,
      "max": [
        69.36316680908203,
        16.254453659057617,
        52.009124755859375
      ],
      "min": [
        -67.12364959716797,
        7.108067989349365,
        -0.48764899373054504
      ],
      "type": "VEC3"
    },
    {
      "bufferView": 2,
      "byteOffset": 1736832,
      "componentType": 5126,
      "count": 13672,
      "max": [
        0.9999999403953552,
        0.9986223578453064,
        0.9999978542327881
      ],
      "min": [
        -0.9999721646308899,
        -0.9999961853027344,
        -0.9998977184295654
      ],
      "type": "VEC3"
    },
    {
      "bufferView": 3,
      "byteOffset": 1048512,
      "componentType": 5126,
      "count": 13672,
      "max": [
        0.9999914169311523,
        0.9999979138374329,
        0.9999921321868896,
        1.0
      ],
      "min": [
        -0.9999911785125732,
        -0.9999954104423523,
        -0.9999974966049194,
        1.0
      ],
      "type": "VEC4"
    },
    {
      "bufferView": 1,
      "byteOffset": 524256,
      "componentType": 5126,
      "count": 13672,
      "max": [
        0.9999979734420776,
        0.9999009966850281
      ],
      "min": [
        5.6000000768108293e-05,
        0.0
      ],
      "type": "VEC2"
    },
    {
      "bufferView": 0,
      "byteOffset": 946236,
      "componentType": 5125,
      "count": 33252,
      "type": "SCALAR"
    },
    {
      "bufferView": 2,
      "byteOffset": 1900896,
      "componentType": 5126,
      "count": 42,
      "max": [
        -15.088305473327637,
        26.033172607421875,
        43.4991569519043
      ],
      "min": [
        -23.86530876159668,
        20.910539627075195,
        30.44442367553711
      ],
      "type": "VEC3"
    },
    {
      "bufferView": 2,
      "byteOffset": 1901400,
      "componentType": 5126,
      "count": 42,
      "max": [
        0.5196280479431152,
        0.48813799023628235,
        0.3478311002254486
      ],
      "min": [
        -0.4582241177558899,
        -1.0,
        -0.9457454681396484
      ],
      "type": "VEC3"
    },
    {
      "bufferView": 3,
      "byteOffset": 1267264,
      "componentType": 5126,
      "count": 42,
      "max": [
        0.46905961632728577,
        0.052430395036935806,
        0.9626699090003967,
        1.0
      ],
      "min": [
        -0.9826036095619202,
        -0.8027861714363098,
        -0.9894455075263977,
        1.0
      ],
      "type": "VEC4"
    },
    {
      "bufferView": 1,
      "byteOffset": 633632,
      "componentType": 5126,
      "count": 42,
      "max": [
        0.9385409951210022,
        0.9254869818687439
      ],
      "min": [
        0.044617000967264175,
        0.10715799778699875
      ],
      "type": "VEC2"
    },
    {
      "bufferView": 0,
      "byteOffset": 1079244,
      "componentType": 5125,
      "count": 81,
      "type": "SCALAR"
    }
  ],
  "asset": {
    "extras": {
      "author": "scanforge (https://sketchfab.com/looppy)",
      "license": "CC-BY-4.0 (http://creativecommons.org/licenses/by/4.0/)",
      "source": "https://sketchfab.com/3d-models/ukraine-war-destroyed-apartment-building-scan-79914ce6b77a48d2a102e4cc47b9a882",
      "title": "ukraine war - destroyed apartment building scan"
    },
    "generator": "Sketchfab-16.14.0",
    "version": "2.0"
  },
  "bufferViews": [
    {
      "buffer": 0,
      "byteLength": 1079568,
      "name": "floatBufferViews",
      "target": 34963
    },
    {
      "buffer": 0,
      "byteLength": 633968,
      "byteOffset": 1079568,
      "byteStride": 8,
      "name": "floatBufferViews",
      "target": 34962
    },
    {
      "buffer": 0,
      "byteLength": 1901904,
      "byteOffset": 1713536,
      "byteStride": 12,
      "name": "floatBufferViews",
      "target": 34962
    },
    {
      "buffer": 0,
      "byteLength": 1267936,
      "byteOffset": 3615440,
      "byteStride": 16,
      "name": "floatBufferViews",
      "target": 34962
    }
  ],
  "buffers": [
    {
      "byteLength": 4883376,
      "uri": "scene.bin"
    }
  ],
  "images": [
    {
      "uri": "textures/material_0_baseColor.jpeg"
    },
    {
      "uri": "textures/material_0_metallicRoughness.png"
    },
    {
      "uri": "textures/material_0_normal.png"
    }
  ],
  "materials": [
    {
      "doubleSided": true,
      "emissiveFactor": [
        0.5,
        0.5,
        0.5
      ],
      "emissiveTexture": {
        "index": 0
      },
      "name": "material_0",
      "normalTexture": {
        "index": 2
      },
      "occlusionTexture": {
        "index": 1
      },
      "pbrMetallicRoughness": {
        "baseColorFactor": [
          0.5,
          0.5,
          0.5,
          1.0
        ],
        "baseColorTexture": {
          "index": 0
        },
        "metallicFactor": 0.0,
        "metallicRoughnessTexture": {
          "index": 1
        }
      }
    }
  ],
  "meshes": [
    {
      "name": "Object_0",
      "primitives": [
        {
          "attributes": {
            "NORMAL": 1,
            "POSITION": 0,
            "TANGENT": 2,
            "TEXCOORD_0": 3
          },
          "indices": 4,
          "material": 0,
          "mode": 4
        }
      ]
    },
    {
      "name": "Object_1",
      "primitives": [
        {
          "attributes": {
            "NORMAL": 6,
            "POSITION": 5,
            "TANGENT": 7,
            "TEXCOORD_0": 8
          },
          "indices": 9,
          "material": 0,
          "mode": 4
        }
      ]
    },
    {
      "name": "Object_2",
      "primitives": [
        {
          "attributes": {
            "NORMAL": 11,
            "POSITION": 10,
            "TANGENT": 12,
            "TEXCOORD_0": 13
          },
          "indices": 14,
          "material": 0,
          "mode": 4
        }
      ]
    }
  ],
  "nodes": [
    {
      "children": [
        1
      ],
      "matrix": [
        1.0,
        0.0,
        0.0,
        0.0,
        0.0,
        2.220446049250313e-16,
        -1.0,
        0.0,
        0.0,
        1.0,
        2.220446049250313e-16,
        0.0,
        0.0,
        0.0,
        0.0,
        1.0
      ],
      "name": "Sketchfab_model"
    },
    {
      "children": [
        2,
        3,
        4
      ],
      "name": "blockdestroyedMesh.obj.cleaner.materialmerger.gles"
    },
    {
      "mesh": 0,
      "name": "Object_2"
    },
    {
      "mesh": 1,
      "name": "Object_3"
    },
    {
      "mesh": 2,
      "name": "Object_4"
    }
  ],
  "samplers": [
    {
      "magFilter": 9729,
      "minFilter": 9987,
      "wrapS": 10497,
      "wrapT": 10497
    }
  ],
  "scene": 0,
  "scenes": [
    {
      "name": "Sketchfab_Scene",
      "nodes": [
        0
      ]
    }
  ],
  "textures": [
    {
      "sampler": 0,
      "source": 0
    },
    {
      "sampler": 0,
      "source": 1
    },
    {
      "sampler": 0,
      "source": 2
    }
  ]
}
