{
  "accessors": [
    {
      "bufferView": 2,
      "componentType": 5126,
      "count": 208,
      "max": [
        459.3351745605469,
        533.8035278320313,
        290.25909423828125
      ],
      "min": [
        -459.33514404296875,
        -533.803466796875,
        -2.2897415161132813
      ],
      "type": "VEC3"
    },
    {
      "bufferView": 2,
      "byteOffset": 2496,
      "componentType": 5126,
      "count": 208,
      "max": [
        1.0,
        1.0,
        1.0
      ],
      "min": [
        -1.0,
        -1.0,
        -1.0
      ],
      "type": "VEC3"
    },
    {
      "bufferView": 3,
      "componentType": 5126,
      "count": 208,
      "max": [
        1.0,
        1.0,
        1.0,
        1.0
      ],
      "min": [
        -1.0,
        -1.0,
        -1.0,
        1.0
      ],
      "type": "VEC4"
    },
    {
      "bufferView": 1,
      "componentType": 5126,
      "count": 208,
      "max": [
        0.9996033906936646,
        0.9922003149986267
      ],
      "min": [
        0.00017604694585315883,
        0.007564958184957504
      ],
      "type": "VEC2"
    },
    {
      "bufferView": 0,
      "componentType": 5125,
      "count": 453,
      "type": "SCALAR"
    },
    {
      "bufferView": 2,
      "byteOffset": 4992,
      "componentType": 5126,
      "count": 178,
      "max": [
        3.23907470703125,
        15.01845932006836,
        100.96472930908203
      ],
      "min": [
        -3.15130615234375,
        -91.58871459960938,
        -99.0352783203125
      ],
      "type": "VEC3"
    },
    {
      "bufferView": 2,
      "byteOffset": 7128,
      "componentType": 5126,
      "count": 178,
      "max": [
        1.0,
        1.0,
        1.0
      ],
      "min": [
        -1.0,
        -1.0,
        -1.0
      ],
      "type": "VEC3"
    },
    {
      "bufferView": 3,
      "byteOffset": 3328,
      "componentType": 5126,
      "count": 178,
      "max": [
        1.0,
        1.0,
        4.1256993426941335e-05,
        1.0
      ],
      "min": [
        -1.0,
        -1.0,
        -4.125742634641938e-05,
        1.0
      ],
      "type": "VEC4"
    },
    {
      "bufferView": 1,
      "byteOffset": 1664,
      "componentType": 5126,
      "count": 178,
      "max": [
        0.9776601791381836,
        0.9771502614021301
      ],
      "min": [
        0.000171397696249187,
        0.005504962522536516
      ],
      "type": "VEC2"
    },
    {
      "bufferView": 0,
      "byteOffset": 1812,
      "componentType": 5125,
      "count": 390,
      "type": "SCALAR"
    },
    {
      "bufferView": 2,
      "byteOffset": 9264,
      "componentType": 5126,
      "count": 451,
      "max": [
        -423.56231689453125,
        -242.855224609375,
        140.10023498535156
      ],
      "min": [
        -465.92828369140625,
        -353.1590576171875,
        31.088233947753906
      ],
      "type": "VEC3"
    },
    {
      "bufferView": 2,
      "byteOffset": 14676,
      "componentType": 5126,
      "count": 451,
      "max": [
        1.0,
        1.0,
        1.0
      ],
      "min": [
        -1.0,
        -1.0,
        -1.0
      ],
      "type": "VEC3"
    },
    {
      "bufferView": 3,
      "byteOffset": 6176,
      "componentType": 5126,
      "count": 451,
      "max": [
        1.0,
        1.0,
        1.0,
        1.0
      ],
      "min": [
        -1.0,
        -1.0,
        -1.0,
        1.0
      ],
      "type": "VEC4"
    },
    {
      "bufferView": 1,
      "byteOffset": 3088,
      "componentType": 5126,
      "count": 451,
      "max": [
        0.9701189994812012,
        0.9761767983436584
      ],
      "min": [
        0.0,
        0.0
      ],
      "type": "VEC2"
    },
    {
      "bufferView": 0,
      "byteOffset": 3372,
      "componentType": 5125,
      "count": 735,
      "type": "SCALAR"
    },
    {
      "bufferView": 2,
      "byteOffset": 20088,
      "componentType": 5126,
      "count": 155,
      "max": [
        28.499786376953125,
        2.71826171875,
        99.99999237060547
      ],
      "min": [
        -76.05673217773438,
        -2.71807861328125,
        -100.00001525878906
      ],
      "type": "VEC3"
    },
    {
      "bufferView": 2,
      "byteOffset": 21948,
      "componentType": 5126,
      "count": 155,
      "max": [
        1.0,
        1.0,
        1.0
      ],
      "min": [
        -1.0,
        -1.0,
        -1.0
      ],
      "type": "VEC3"
    },
    {
      "bufferView": 3,
      "byteOffset": 13392,
      "componentType": 5126,
      "count": 155,
      "max": [
        1.0,
        1.0,
        1.1441749848017935e-05,
        1.0
      ],
      "min": [
        -1.0,
        -1.0,
        -1.1441748029028531e-05,
        1.0
      ],
      "type": "VEC4"
    },
    {
      "bufferView": 1,
      "byteOffset": 6696,
      "componentType": 5126,
      "count": 155,
      "max": [
        0.9839270114898682,
        0.9726900458335876
      ],
      "min": [
        0.0,
        0.0
      ],
      "type": "VEC2"
    },
    {
      "bufferView": 0,
      "byteOffset": 6312,
      "componentType": 5125,
      "count": 273,
      "type": "SCALAR"
    },
    {
      "bufferView": 2,
      "byteOffset": 23808,
      "componentType": 5126,
      "count": 502,
      "max": [
        3.3968505859375,
        16.690673828125,
        14.78350830078125
      ],
      "min": [
        -3.3956298828125,
        -9.4683837890625,
        -17.00457763671875
      ],
      "type": "VEC3"
    },
    {
      "bufferView": 2,
      "byteOffset": 29832,
      "componentType": 5126,
      "count": 502,
      "max": [
        0.9999704360961914,
        0.9973040819168091,
        0.9887999296188354
      ],
      "min": [
        -0.9999712109565735,
        -0.9936206340789795,
        -0.9948030710220337
      ],
      "type": "VEC3"
    },
    {
      "bufferView": 3,
      "byteOffset": 15872,
      "componentType": 5126,
      "count": 502,
      "max": [
        0.9999980926513672,
        0.983564555644989,
        0.97906094789505,
        1.0
      ],
      "min": [
        -0.9999539256095886,
        -0.9747735857963562,
        -0.9642956852912903,
        1.0
      ],
      "type": "VEC4"
    },
    {
      "bufferView": 1,
      "byteOffset": 7936,
      "componentType": 5126,
      "count": 502,
      "max": [
        0.8394142389297485,
        0.926787793636322
      ],
      "min": [
        0.08469677716493607,
        0.3005705177783966
      ],
      "type": "VEC2"
    },
    {
      "bufferView": 0,
      "byteOffset": 7404,
      "componentType": 5125,
      "count": 2148,
      "type": "SCALAR"
    },
    {
      "bufferView": 2,
      "byteOffset": 35856,
      "componentType": 5126,
      "count": 139,
      "max": [
        477.48748779296875,
        138.55734252929688,
        325.01031494140625
      ],
      "min": [
        420.3560485839844,
        -138.5572967529297,
        250.1519775390625
      ],
      "type": "VEC3"
    },
    {
      "bufferView": 2,
      "byteOffset": 37524,
      "componentType": 5126,
      "count": 139,
      "max": [
        1.0,
        1.0,
        1.0
      ],
      "min": [
        -1.0,
        -1.0,
        -1.0
      ],
      "type": "VEC3"
    },
    {
      "bufferView": 3,
      "byteOffset": 23904,
      "componentType": 5126,
      "count": 139,
      "max": [
        1.0,
        1.0,
        2.374284576944774e-06,
        1.0
      ],
      "min": [
        -1.0,
        -1.0,
        -1.0,
        -1.0
      ],
      "type": "VEC4"
    },
    {
      "bufferView": 1,
      "byteOffset": 11952,
      "componentType": 5126,
      "count": 139,
      "max": [
        0.9999096989631653,
        0.9857476353645325
      ],
      "min": [
        0.0,
        0.0
      ],
      "type": "VEC2"
    },
    {
      "bufferView": 0,
      "byteOffset": 15996,
      "componentType": 5125,
      "count": 219,
      "type": "SCALAR"
    },
    {
      "bufferView": 2,
      "byteOffset": 39192,
      "componentType": 5126,
      "count": 250,
      "max": [
        99.9998779296875,
        38.8060302734375,
        91.56218719482422
      ],
      "min": [
        -100.0001220703125,
        -36.857452392578125,
        -108.43782043457031
      ],
      "type": "VEC3"
    },
    {
      "bufferView": 2,
      "byteOffset": 42192,
      "componentType": 5126,
      "count": 250,
      "max": [
        1.0,
        1.0,
        1.0
      ],
      "min": [
        -1.0,
        -1.0,
        -1.0
      ],
      "type": "VEC3"
    },
    {
      "bufferView": 3,
      "byteOffset": 26128,
      "componentType": 5126,
      "count": 250,
      "max": [
        1.0,
        1.0,
        1.0,
        1.0
      ],
      "min": [
        -1.0,
        -1.0,
        -1.0,
        -1.0
      ],
      "type": "VEC4"
    },
    {
      "bufferView": 1,
      "byteOffset": 13064,
      "componentType": 5126,
      "count": 250,
      "max": [
        0.9978577494621277,
        0.9950023889541626
      ],
      "min": [
        0.0,
        0.0
      ],
      "type": "VEC2"
    },
    {
      "bufferView": 0,
      "byteOffset": 16872,
      "componentType": 5125,
      "count": 396,
      "type": "SCALAR"
    },
    {
      "bufferView": 2,
      "byteOffset": 45192,
      "componentType": 5126,
      "count": 256,
      "max": [
        137.6239013671875,
        35.4649543762207,
        35.636505126953125
      ],
      "min": [
        -65.47369384765625,
        -62.35226058959961,
        -96.77703094482422
      ],
      "type": "VEC3"
    },
    {
      "bufferView": 2,
      "byteOffset": 48264,
      "componentType": 5126,
      "count": 256,
      "max": [
        1.0,
        1.0,
        1.0
      ],
      "min": [
        -1.0,
        -1.0,
        -1.0
      ],
      "type": "VEC3"
    },
    {
      "bufferView": 3,
      "byteOffset": 30128,
      "componentType": 5126,
      "count": 256,
      "max": [
        0.14585398137569427,
        1.0,
        1.0,
        1.0
      ],
      "min": [
        -0.9999997019767761,
        -1.0,
        -1.0,
        -1.0
      ],
      "type": "VEC4"
    },
    {
      "bufferView": 1,
      "byteOffset": 15064,
      "componentType": 5126,
      "count": 256,
      "max": [
        0.9961504340171814,
        0.9508190155029297
      ],
      "min": [
        0.0009752537589520216,
        0.005075776483863592
      ],
      "type": "VEC2"
    },
    {
      "bufferView": 0,
      "byteOffset": 18456,
      "componentType": 5125,
      "count": 462,
      "type": "SCALAR"
    },
    {
      "bufferView": 2,
      "byteOffset": 51336,
      "componentType": 5126,
      "count": 178,
      "max": [
        3.23907470703125,
        15.01845932006836,
        100.96472930908203
      ],
      "min": [
        -3.15130615234375,
        -91.58871459960938,
        -99.0352783203125
      ],
      "type": "VEC3"
    },
    {
      "bufferView": 2,
      "byteOffset": 53472,
      "componentType": 5126,
      "count": 178,
      "max": [
        1.0,
        1.0,
        1.0
      ],
      "min": [
        -1.0,
        -1.0,
        -1.0
      ],
      "type": "VEC3"
    },
    {
      "bufferView": 3,
      "byteOffset": 34224,
      "componentType": 5126,
      "count": 178,
      "max": [
        1.0,
        1.0,
        4.1256993426941335e-05,
        1.0
      ],
      "min": [
        -1.0,
        -1.0,
        -4.125742634641938e-05,
        1.0
      ],
      "type": "VEC4"
    },
    {
      "bufferView": 1,
      "byteOffset": 17112,
      "componentType": 5126,
      "count": 178,
      "max": [
        0.9776601791381836,
        0.9771502614021301
      ],
      "min": [
        0.000171397696249187,
        0.005504962522536516
      ],
      "type": "VEC2"
    },
    {
      "bufferView": 0,
      "byteOffset": 20304,
      "componentType": 5125,
      "count": 390,
      "type": "SCALAR"
    }
  ],
  "asset": {
    "extras": {
      "author": "Thunder (https://sketchfab.com/thunderpwn)",
      "license": "CC-BY-SA-4.0 (http://creativecommons.org/licenses/by-sa/4.0/)",
      "source": "https://sketchfab.com/3d-models/abandoned-shopmall-e52734c8947e466a8f2943ae3bfc0d1e",
      "title": "Abandoned Shop/mall"
    },
    "generator": "Sketchfab-12.66.0",
    "version": "2.0"
  },
  "bufferViews": [
    {
      "buffer": 0,
      "byteLength": 21864,
      "name": "floatBufferViews",
      "target": 34963
    },
    {
      "buffer": 0,
      "byteLength": 18536,
      "byteOffset": 21864,
      "byteStride": 8,
      "name": "floatBufferViews",
      "target": 34962
    },
    {
      "buffer": 0,
      "byteLength": 55608,
      "byteOffset": 40400,
      "byteStride": 12,
      "name": "floatBufferViews",
      "target": 34962
    },
    {
      "buffer": 0,
      "byteLength": 37072,
      "byteOffset": 96008,
      "byteStride": 16,
      "name": "floatBufferViews",
      "target": 34962
    }
  ],
  "buffers": [
    {
      "byteLength": 133080,
      "uri": "scene.bin"
    }
  ],
  "images": [
    {
      "uri": "textures/Material_baseColor.png"
    },
    {
      "uri": "textures/Material_metallicRoughness.png"
    },
    {
      "uri": "textures/Material_normal.png"
    },
    {
      "uri": "textures/Material.001_baseColor.png"
    },
    {
      "uri": "textures/Material.001_metallicRoughness.png"
    },
    {
      "uri": "textures/Material.001_normal.png"
    }
  ],
  "materials": [
    {
      "doubleSided": true,
      "name": "Material",
      "normalTexture": {
        "index": 2
      },
      "pbrMetallicRoughness": {
        "baseColorTexture": {
          "index": 0
        },
        "metallicRoughnessTexture": {
          "index": 1
        }
      }
    },
    {
      "doubleSided": true,
      "name": "Material.001",
      "normalTexture": {
        "index": 5
      },
      "pbrMetallicRoughness": {
        "baseColorTexture": {
          "index": 3
        },
        "metallicRoughnessTexture": {
          "index": 4
        }
      }
    }
  ],
  "meshes": [
    {
      "name": "Cube_Material_0",
      "primitives": [
        {
          "attributes": {
            "NORMAL": 1,
            "POSITION": 0,
            "TANGENT": 2,
            "TEXCOORD_0": 3
          },
          "indices": 4,
          "material": 0,
          "mode": 4
        }
      ]
    },
    {
      "name": "Cube.001_Material.001_0",
      "primitives": [
        {
          "attributes": {
            "NORMAL": 6,
            "POSITION": 5,
            "TANGENT": 7,
            "TEXCOORD_0": 8
          },
          "indices": 9,
          "material": 1,
          "mode": 4
        }
      ]
    },
    {
      "name": "Cube.002_Material.001_0",
      "primitives": [
        {
          "attributes": {
            "NORMAL": 11,
            "POSITION": 10,
            "TANGENT": 12,
            "TEXCOORD_0": 13
          },
          "indices": 14,
          "material": 1,
          "mode": 4
        }
      ]
    },
    {
      "name": "Cube.003_Material.001_0",
      "primitives": [
        {
          "attributes": {
            "NORMAL": 16,
            "POSITION": 15,
            "TANGENT": 17,
            "TEXCOORD_0": 18
          },
          "indices": 19,
          "material": 1,
          "mode": 4
        }
      ]
    },
    {
      "name": "Cylinder_Material.001_0",
      "primitives": [
        {
          "attributes": {
            "NORMAL": 21,
            "POSITION": 20,
            "TANGENT": 22,
            "TEXCOORD_0": 23
          },
          "indices": 24,
          "material": 1,
          "mode": 4
        }
      ]
    },
    {
      "name": "Cube.004_Material.001_0",
      "primitives": [
        {
          "attributes": {
            "NORMAL": 26,
            "POSITION": 25,
            "TANGENT": 27,
            "TEXCOORD_0": 28
          },
          "indices": 29,
          "material": 1,
          "mode": 4
        }
      ]
    },
    {
      "name": "Cube.005_Material.001_0",
      "primitives": [
        {
          "attributes": {
            "NORMAL": 31,
            "POSITION": 30,
            "TANGENT": 32,
            "TEXCOORD_0": 33
          },
          "indices": 34,
          "material": 1,
          "mode": 4
        }
      ]
    },
    {
      "name": "Cube.006_Material.001_0",
      "primitives": [
        {
          "attributes": {
            "NORMAL": 36,
            "POSITION": 35,
            "TANGENT": 37,
            "TEXCOORD_0": 38
          },
          "indices": 39,
          "material": 1,
          "mode": 4
        }
      ]
    },
    {
      "name": "Cube.007_Material.001_0",
      "primitives": [
        {
          "attributes": {
            "NORMAL": 41,
            "POSITION": 40,
            "TANGENT": 42,
            "TEXCOORD_0": 43
          },
          "indices": 44,
          "material": 1,
          "mode": 4
        }
      ]
    }
  ],
  "nodes": [
    {
      "children": [
        1
      ],
      "matrix": [
        1.0,
        0.0,
        0.0,
        0.0,
        0.0,
        2.220446049250313e-16,
        -1.0,
        0.0,
        0.0,
        1.0,
        2.220446049250313e-16,
        0.0,
        0.0,
        0.0,
        0.0,
        1.0
      ],
      "name": "Sketchfab_model"
    },
    {
      "children": [
        2
      ],
      "matrix": [
        1.0,
        0.0,
        0.0,
        0.0,
        0.0,
        0.0,
        1.0,
        0.0,
        0.0,
        -1.0,
        0.0,
        0.0,
        0.0,
        0.0,
        0.0,
        1.0
      ],
      "name": "shop.fbx"
    },
    {
      "children": [
        3,
        5,
        7,
        9,
        11,
        13,
        15,
        17,
        19
      ],
      "name": "RootNode"
    },
    {
      "children": [
        4
      ],
      "matrix": [
        1.0,
        0.0,
        0.0,
        0.0,
        0.0,
        -1.6292067939183141e-07,
        -0.9999999999999868,
        0.0,
        0.0,
        0.9999999999999868,
        -1.6292067939183141e-07,
        0.0,
        0.0,
        0.0,
        0.0,
        1.0
      ],
      "name": "Cube"
    },
    {
      "mesh": 0,
      "name": "Cube_Material_0"
    },
    {
      "children": [
        6
      ],
      "matrix": [
        1.0,
        0.0,
        0.0,
        0.0,
        0.0,
        -1.6292067939183141e-07,
        -0.9999999999999868,
        0.0,
        0.0,
        0.9999999999999868,
        -1.6292067939183141e-07,
        0.0,
        410.08392333984375,
        103.91885375976563,
        -90.79173278808594,
        1.0
      ],
      "name": "Cube.001"
    },
    {
      "mesh": 1,
      "name": "Cube.001_Material.001_0"
    },
    {
      "children": [
        8
      ],
      "matrix": [
        1.0,
        0.0,
        0.0,
        0.0,
        0.0,
        -1.6292067939183141e-07,
        -0.9999999999999868,
        0.0,
        0.0,
        0.9999999999999868,
        -1.6292067939183141e-07,
        0.0,
        0.0,
        0.0,
        0.0,
        1.0
      ],
      "name": "Cube.002"
    },
    {
      "mesh": 2,
      "name": "Cube.002_Material.001_0"
    },
    {
      "children": [
        10
      ],
      "matrix": [
        1.0,
        0.0,
        0.0,
        0.0,
        -0.0,
        -1.6292067939183141e-07,
        -0.9999999999999868,
        0.0,
        0.0,
        0.9999999999999868,
        -1.6292067939183141e-07,
        0.0,
        -217.37002563476563,
        106.47747802734375,
        497.2354431152344,
        1.0
      ],
      "name": "Cube.003"
    },
    {
      "mesh": 3,
      "name": "Cube.003_Material.001_0"
    },
    {
      "children": [
        12
      ],
      "matrix": [
        1.9470718881642313e-07,
        -0.9999999999999811,
        -3.851849730105351e-15,
        0.0,
        0.9999999999999782,
        1.9470718881642313e-07,
        -7.549790126404327e-08,
        0.0,
        7.549790126404258e-08,
        1.0848134397675909e-14,
        0.9999999999999971,
        0.0,
        -282.41607666015625,
        113.2015151977539,
        498.8778076171875,
        1.0
      ],
      "name": "Cylinder"
    },
    {
      "mesh": 4,
      "name": "Cylinder_Material.001_0"
    },
    {
      "children": [
        14
      ],
      "matrix": [
        1.0,
        0.0,
        0.0,
        0.0,
        0.0,
        -1.6292067939183141e-07,
        -0.9999999999999868,
        0.0,
        0.0,
        0.9999999999999868,
        -1.6292067939183141e-07,
        0.0,
        0.0,
        0.0,
        0.0,
        1.0
      ],
      "name": "Cube.004"
    },
    {
      "mesh": 5,
      "name": "Cube.004_Material.001_0"
    },
    {
      "children": [
        16
      ],
      "matrix": [
        1.0,
        0.0,
        0.0,
        0.0,
        -0.0,
        -1.6292067939183141e-07,
        -0.9999999999999868,
        0.0,
        0.0,
        0.9999999999999868,
        -1.6292067939183141e-07,
        0.0,
        -37.4193115234375,
        110.59847259521484,
        111.26866912841797,
        1.0
      ],
      "name": "Cube.005"
    },
    {
      "mesh": 6,
      "name": "Cube.005_Material.001_0"
    },
    {
      "children": [
        18
      ],
      "matrix": [
        1.0,
        0.0,
        0.0,
        0.0,
        0.0,
        -1.6292067939183141e-07,
        -0.9999999999999868,
        0.0,
        0.0,
        0.9999999999999868,
        -1.6292067939183141e-07,
        0.0,
        215.25067138671875,
        96.59587860107422,
        -251.34078979492188,
        1.0
      ],
      "name": "Cube.006"
    },
    {
      "mesh": 7,
      "name": "Cube.006_Material.001_0"
    },
    {
      "children": [
        20
      ],
      "matrix": [
        0.680005047441492,
        -4.91106433297972e-09,
        0.733207430031975,
        -0.0,
        -0.7332074300319734,
        -7.020260239798404e-08,
        0.6800050474414905,
        -0.0,
        -4.8133521057813766e-08,
        0.9999999999999973,
        5.133895264464172e-08,
        -0.0,
        421.6809997558594,
        103.91885375976563,
        94.60564422607422,
        1.0
      ],
      "name": "Cube.007"
    },
    {
      "mesh": 8,
      "name": "Cube.007_Material.001_0"
    }
  ],
  "samplers": [
    {
      "magFilter": 9729,
      "minFilter": 9987,
      "wrapS": 10497,
      "wrapT": 10497
    }
  ],
  "scene": 0,
  "scenes": [
    {
      "name": "Sketchfab_Scene",
      "nodes": [
        0
      ]
    }
  ],
  "textures": [
    {
      "sampler": 0,
      "source": 0
    },
    {
      "sampler": 0,
      "source": 1
    },
    {
      "sampler": 0,
      "source": 2
    },
    {
      "sampler": 0,
      "source": 3
    },
    {
      "sampler": 0,
      "source": 4
    },
    {
      "sampler": 0,
      "source": 5
    }
  ]
}
