{
  "accessors": [
    {
      "bufferView": 2,
      "componentType": 5126,
      "count": 2445,
      "max": [
        2.925773859024048,
        11.355079650878906,
        0.871299147605896
      ],
      "min": [
        -2.925774097442627,
        -0.004466261714696884,
        -1.0198663473129272
      ],
      "type": "VEC3"
    },
    {
      "bufferView": 2,
      "byteOffset": 29340,
      "componentType": 5126,
      "count": 2445,
      "max": [
        1.0,
        0.9971039891242981,
        1.0
      ],
      "min": [
        -1.0,
        -0.999886691570282,
        -0.9997300505638123
      ],
      "type": "VEC3"
    },
    {
      "bufferView": 3,
      "componentType": 5126,
      "count": 2445,
      "max": [
        0.9998996257781982,
        0.9992883205413818,
        0.9999811053276062,
        1.0
      ],
      "min": [
        -0.9999193549156189,
        -0.9998660087585449,
        -0.9998779296875,
        -1.0
      ],
      "type": "VEC4"
    },
    {
      "bufferView": 1,
      "componentType": 5126,
      "count": 2445,
      "max": [
        0.9970284700393677,
        0.9986640214920044
      ],
      "min": [
        0.008996408432722092,
        9.797513484954834e-06
      ],
      "type": "VEC2"
    },
    {
      "bufferView": 1,
      "byteOffset": 19560,
      "componentType": 5126,
      "count": 2445,
      "max": [
        0.9970284700393677,
        0.9986640214920044
      ],
      "min": [
        0.008996408432722092,
        9.797513484954834e-06
      ],
      "type": "VEC2"
    },
    {
      "bufferView": 0,
      "componentType": 5125,
      "count": 8976,
      "type": "SCALAR"
    }
  ],
  "asset": {
    "extras": {
      "author": "_memo (https://sketchfab.com/sj_memo)",
      "license": "CC-BY-4.0 (http://creativecommons.org/licenses/by/4.0/)",
      "source": "https://sketchfab.com/3d-models/victorian-child-low-poly-character-model-ac62dc5a6b9148719201d8ba0f495d65",
      "title": "Victorian Child - Low Poly Character Model"
    },
    "generator": "Sketchfab-15.49.0",
    "version": "2.0"
  },
  "bufferViews": [
    {
      "buffer": 0,
      "byteLength": 35904,
      "name": "floatBufferViews",
      "target": 34963
    },
    {
      "buffer": 0,
      "byteLength": 39120,
      "byteOffset": 35904,
      "byteStride": 8,
      "name": "floatBufferViews",
      "target": 34962
    },
    {
      "buffer": 0,
      "byteLength": 58680,
      "byteOffset": 75024,
      "byteStride": 12,
      "name": "floatBufferViews",
      "target": 34962
    },
    {
      "buffer": 0,
      "byteLength": 39120,
      "byteOffset": 133704,
      "byteStride": 16,
      "name": "floatBufferViews",
      "target": 34962
    }
  ],
  "buffers": [
    {
      "byteLength": 172824,
      "uri": "scene.bin"
    }
  ],
  "extensionsUsed": [
    "KHR_materials_specular"
  ],
  "images": [
    {
      "uri": "textures/M_Character_baseColor.png"
    },
    {
      "uri": "textures/M_Character_normal.png"
    },
    {
      "uri": "textures/M_Character_specularf0.png"
    }
  ],
  "materials": [
    {
      "doubleSided": true,
      "extensions": {
        "KHR_materials_specular": {
          "specularColorFactor": [
            1.0,
            1.0,
            1.0
          ],
          "specularFactor": 1.0,
          "specularTexture": {
            "index": 2
          }
        }
      },
      "name": "M_Character",
      "normalTexture": {
        "index": 1
      },
      "pbrMetallicRoughness": {
        "baseColorTexture": {
          "index": 0
        },
        "metallicFactor": 0.0,
        "roughnessFactor": 0.6
      }
    }
  ],
  "meshes": [
    {
      "name": "SM_Steven_M1_M_Character_0",
      "primitives": [
        {
          "attributes": {
            "NORMAL": 1,
            "POSITION": 0,
            "TANGENT": 2,
            "TEXCOORD_0": 3,
            "TEXCOORD_1": 4
          },
          "indices": 5,
          "material": 0,
          "mode": 4
        }
      ]
    }
  ],
  "nodes": [
    {
      "children": [
        1
      ],
      "matrix": [
        1.0,
        0.0,
        0.0,
        0.0,
        0.0,
        2.220446049250313e-16,
        -1.0,
        0.0,
        0.0,
        1.0,
        2.220446049250313e-16,
        0.0,
        0.0,
        0.0,
        0.0,
        1.0
      ],
      "name": "Sketchfab_model"
    },
    {
      "children": [
        2
      ],
      "matrix": [
        0.009999999776482582,
        0.0,
        0.0,
        0.0,
        0.0,
        0.0,
        0.009999999776482582,
        0.0,
        0.0,
        -0.009999999776482582,
        0.0,
        0.0,
        0.0,
        0.0,
        0.0,
        1.0
      ],
      "name": "94873a27957346388412f2fe22324698.fbx"
    },
    {
      "children": [
        3
      ],
      "name": "RootNode"
    },
    {
      "children": [
        4
      ],
      "name": "SM_Steven_M1"
    },
    {
      "mesh": 0,
      "name": "SM_Steven_M1_M_Character_0"
    }
  ],
  "samplers": [
    {
      "magFilter": 9729,
      "minFilter": 9987,
      "wrapS": 10497,
      "wrapT": 10497
    }
  ],
  "scene": 0,
  "scenes": [
    {
      "name": "Sketchfab_Scene",
      "nodes": [
        0
      ]
    }
  ],
  "textures": [
    {
      "sampler": 0,
      "source": 0
    },
    {
      "sampler": 0,
      "source": 1
    },
    {
      "sampler": 0,
      "source": 2
    }
  ]
}
